<svg width="300" height="400" viewBox="0 0 300 400" xmlns="http://www.w3.org/2000/svg">
  <rect x="0" y="0" width="300" height="400" rx="24" fill="#0C447C"/>
  <circle cx="150" cy="128" r="62" fill="#EF9F27" opacity="0.18"/>
  <circle cx="150" cy="128" r="44" fill="#FAC775"/>
  <circle cx="150" cy="128" r="28" fill="#FAEEDA"/>
  <g stroke="#FAC775" stroke-width="3.5" stroke-linecap="round">
    <line x1="150" y1="68" x2="150" y2="54"/>
    <line x1="150" y1="188" x2="150" y2="202"/>
    <line x1="90" y1="128" x2="76" y2="128"/>
    <line x1="210" y1="128" x2="224" y2="128"/>
    <line x1="107" y1="85" x2="97" y2="75"/>
    <line x1="193" y1="171" x2="203" y2="181"/>
    <line x1="193" y1="85" x2="203" y2="75"/>
    <line x1="107" y1="171" x2="97" y2="181"/>
  </g>
  <ellipse cx="178" cy="198" rx="66" ry="34" fill="#E6F1FB"/>
  <ellipse cx="133" cy="206" rx="46" ry="30" fill="#E6F1FB"/>
  <circle cx="146" cy="183" r="32" fill="#E6F1FB"/>
  <circle cx="180" cy="176" r="28" fill="#E6F1FB"/>
  <circle cx="208" cy="190" r="22" fill="#E6F1FB"/>
  <path d="M 73 295 A 78 78 0 0 1 227 295" fill="none" stroke="#185FA5" stroke-width="12" stroke-linecap="round"/>
  <path d="M 73 295 A 78 78 0 0 1 110 236" fill="none" stroke="#5DCAA5" stroke-width="12" stroke-linecap="round"/>
  <path d="M 110 236 A 78 78 0 0 1 150 225" fill="none" stroke="#9FE1CB" stroke-width="12" stroke-linecap="round"/>
  <path d="M 150 225 A 78 78 0 0 1 190 236" fill="none" stroke="#FAC775" stroke-width="12" stroke-linecap="round"/>
  <path d="M 190 236 A 78 78 0 0 1 227 295" fill="none" stroke="#EF9F27" stroke-width="12" stroke-linecap="round"/>
  <line x1="150" y1="295" x2="120" y2="247" stroke="#FAEEDA" stroke-width="3" stroke-linecap="round"/>
  <circle cx="150" cy="295" r="6" fill="#FAEEDA"/>
  <text x="150" y="340" font-family="Arial, sans-serif" font-size="22" font-weight="500" fill="#E6F1FB" text-anchor="middle">AtmoScope</text>
  <text x="150" y="362" font-family="Arial, sans-serif" font-size="11" font-weight="400" fill="#85B7EB" text-anchor="middle">weather &amp; air quality</text>
</svg>
